<svg xmlns="http://www.w3.org/2000/svg" xmlns:xlink="http://www.w3.org/1999/xlink" width="334" height="88" viewBox="0 0 334 88" role="img"><style>:root{--bg:#ffffff;--ink:#1f2328;--dim:#59636e;--rule:#d1d9e0}@media(prefers-color-scheme:dark){:root{--bg:#0d1117;--ink:#e6edf3;--dim:#8b949e;--rule:#30363d}}.bg{fill:var(--bg)}.ink{fill:var(--ink)}.dim{fill:var(--dim)}.rule{fill:none;stroke:var(--rule)}</style><rect class="bg" width="100%" height="100%"/><defs><path id="g0" d="M250 400Q254 384 254 360Q254 337 250 320H150Q146 337 146 360Q146 384 150 400Q146 417 146 440Q146 464 150 480H250Q254 464 254 440Q254 417 250 400ZM254 120Q254 97 250 80Q254 64 254 40Q254 17 250 0Q254 -16 254 -40Q254 -63 250 -80H210Q214 -96 214 -120Q214 -143 210 -160H150Q146 -143 146 -120Q146 -96 150 -80H190Q186 -63 186 -40Q186 -16 190 0H150Q146 17 146 40Q146 64 150 80Q146 97 146 120Q146 144 150 160H250Q254 144 254 120Z"/><path id="g1" d="M360 80Q364 64 364 40Q364 17 360 0H280Q276 17 276 40Q276 64 280 80Q276 97 276 120Q276 144 280 160H120Q124 144 124 120Q124 97 120 80Q124 64 124 40Q124 17 120 0H40Q36 17 36 40Q36 64 40 80Q36 97 36 120Q36 144 40 160H70Q66 177 66 200Q66 224 70 240Q66 257 66 280Q66 304 70 320H90Q86 337 86 360Q86 384 90 400H120Q116 417 116 440Q116 464 120 480H140Q136 497 136 520Q136 544 140 560H260Q264 544 264 520Q264 497 260 480H280Q284 464 284 440Q284 417 280 400H310Q314 384 314 360Q314 337 310 320H330Q334 304 334 280Q334 257 330 240Q334 224 334 200Q334 177 330 160H360Q364 144 364 120Q364 97 360 80ZM246 280Q246 304 250 320H230Q226 337 226 360Q226 384 230 400H170Q174 384 174 360Q174 337 170 320H150Q154 304 154 280Q154 257 150 240H250Q246 257 246 280Z"/><path id="g2" d="M364 280Q364 257 360 240Q364 224 364 200Q364 177 360 160Q364 144 364 120Q364 97 360 80H320Q324 64 324 40Q324 17 320 0H120Q116 17 116 40Q116 64 120 80H80Q76 97 76 120Q76 144 80 160H40Q36 177 36 200Q36 224 40 240Q36 257 36 280Q36 304 40 320Q36 337 36 360Q36 384 40 400H80Q76 417 76 440Q76 464 80 480H120Q116 497 116 520Q116 544 120 560H320Q324 544 324 520Q324 497 320 480H360Q364 464 364 440Q364 417 360 400H280Q276 417 276 440Q276 464 280 480H160Q164 464 164 440Q164 417 160 400H120Q124 384 124 360Q124 337 120 320Q124 304 124 280Q124 257 120 240Q124 224 124 200Q124 177 120 160H160Q164 144 164 120Q164 97 160 80H280Q276 97 276 120Q276 144 280 160Q276 177 276 200Q276 224 280 240H220Q216 257 216 280Q216 304 220 320H360Q364 304 364 280Z"/><path id="g3" d="M300 80Q304 64 304 40Q304 17 300 0H100Q96 17 96 40Q96 64 100 80H160Q156 97 156 120Q156 144 160 160Q156 177 156 200Q156 224 160 240Q156 257 156 280Q156 304 160 320Q156 337 156 360Q156 384 160 400Q156 417 156 440Q156 464 160 480H100Q96 497 96 520Q96 544 100 560H300Q304 544 304 520Q304 497 300 480H240Q244 464 244 440Q244 417 240 400Q244 384 244 360Q244 337 240 320Q244 304 244 280Q244 257 240 240Q244 224 244 200Q244 177 240 160Q244 144 244 120Q244 97 240 80Z"/><path id="g4" d="M364 440Q364 417 360 400Q364 384 364 360Q364 337 360 320Q364 304 364 280Q364 257 360 240Q364 224 364 200Q364 177 360 160Q364 144 364 120Q364 97 360 80Q364 64 364 40Q364 17 360 0H280Q276 17 276 40Q276 64 280 80Q276 97 276 120Q276 144 280 160Q276 177 276 200Q276 224 280 240Q276 257 276 280Q276 304 280 320Q276 337 276 360Q276 384 280 400H250Q254 384 254 360Q254 337 250 320Q254 304 254 280Q254 257 250 240H230Q234 224 234 200Q234 177 230 160Q234 144 234 120Q234 97 230 80H170Q166 97 166 120Q166 144 170 160Q166 177 166 200Q166 224 170 240H150Q146 257 146 280Q146 304 150 320Q146 337 146 360Q146 384 150 400H120Q124 384 124 360Q124 337 120 320Q124 304 124 280Q124 257 120 240Q124 224 124 200Q124 177 120 160Q124 144 124 120Q124 97 120 80Q124 64 124 40Q124 17 120 0H40Q36 17 36 40Q36 64 40 80Q36 97 36 120Q36 144 40 160Q36 177 36 200Q36 224 40 240Q36 257 36 280Q36 304 40 320Q36 337 36 360Q36 384 40 400Q36 417 36 440Q36 464 40 480Q36 497 36 520Q36 544 40 560H140Q144 544 144 520Q144 497 140 480H170Q174 464 174 440Q174 417 170 400H185Q189 384 189 360Q189 337 185 320H215Q211 337 211 360Q211 384 215 400H230Q226 417 226 440Q226 464 230 480H260Q256 497 256 520Q256 544 260 560H360Q364 544 364 520Q364 497 360 480Q364 464 364 440Z"/><path id="g5" d="M364 40Q364 17 360 0H280Q276 17 276 40Q276 64 280 80H240Q236 97 236 120Q236 144 240 160H120Q124 144 124 120Q124 97 120 80H240Q244 64 244 40Q244 17 240 0H80Q76 17 76 40Q76 64 80 80H40Q36 97 36 120Q36 144 40 160H80Q76 177 76 200Q76 224 80 240H240Q236 257 236 280Q236 304 240 320H100Q96 337 96 360Q96 384 100 400H280Q284 384 284 360Q284 337 280 320H320Q324 304 324 280Q324 257 320 240Q324 224 324 200Q324 177 320 160Q324 144 324 120Q324 97 320 80H360Q364 64 364 40Z"/><path id="g6" d="M360 160Q364 144 364 120Q364 97 360 80H320Q324 64 324 40Q324 17 320 0H120Q116 17 116 40Q116 64 120 80H80Q76 97 76 120Q76 144 80 160H40Q36 177 36 200Q36 224 40 240H80Q76 257 76 280Q76 304 80 320H120Q116 337 116 360Q116 384 120 400H320Q324 384 324 360Q324 337 320 320H360Q364 304 364 280Q364 257 360 240H280Q276 257 276 280Q276 304 280 320H160Q164 304 164 280Q164 257 160 240H120Q124 224 124 200Q124 177 120 160H160Q164 144 164 120Q164 97 160 80H280Q276 97 276 120Q276 144 280 160Z"/><path id="g7" d="M364 440Q364 417 360 400Q364 384 364 360Q364 337 360 320Q364 304 364 280Q364 257 360 240Q364 224 364 200Q364 177 360 160Q364 144 364 120Q364 97 360 80Q364 64 364 40Q364 17 360 0H280Q276 17 276 40Q276 64 280 80H250Q246 97 246 120Q246 144 250 160H280Q276 177 276 200Q276 224 280 240H250Q246 257 246 280Q246 304 250 320H280Q276 337 276 360Q276 384 280 400Q276 417 276 440Q276 464 280 480Q276 497 276 520Q276 544 280 560H360Q364 544 364 520Q364 497 360 480Q364 464 364 440ZM230 320H130Q134 304 134 280Q134 257 130 240H100Q104 224 104 200Q104 177 100 160H130Q134 144 134 120Q134 97 130 80H230Q234 64 234 40Q234 17 230 0H120Q116 17 116 40Q116 64 120 80H70Q66 97 66 120Q66 144 70 160H40Q36 177 36 200Q36 224 40 240H70Q66 257 66 280Q66 304 70 320H120Q116 337 116 360Q116 384 120 400H230Q234 384 234 360Q234 337 230 320Z"/><path id="g8" d="M360 240Q364 224 364 200Q364 177 360 160H150Q154 144 154 120Q154 97 150 80H320Q324 64 324 40Q324 17 320 0H120Q116 17 116 40Q116 64 120 80H70Q66 97 66 120Q66 144 70 160H40Q36 177 36 200Q36 224 40 240H70Q66 257 66 280Q66 304 70 320H120Q116 337 116 360Q116 384 120 400H320Q324 384 324 360Q324 337 320 320H360Q364 304 364 280Q364 257 360 240ZM276 280Q276 304 280 320H150Q154 304 154 280Q154 257 150 240H280Q276 257 276 280Z"/><path id="g9" d="M120 320H150Q154 304 154 280Q154 257 150 240H120Q124 224 124 200Q124 177 120 160Q124 144 124 120Q124 97 120 80Q124 64 124 40Q124 17 120 0H40Q36 17 36 40Q36 64 40 80Q36 97 36 120Q36 144 40 160Q36 177 36 200Q36 224 40 240Q36 257 36 280Q36 304 40 320Q36 337 36 360Q36 384 40 400Q36 417 36 440Q36 464 40 480Q36 497 36 520Q36 544 40 560H120Q124 544 124 520Q124 497 120 480Q124 464 124 440Q124 417 120 400Q124 384 124 360Q124 337 120 320ZM364 200Q364 177 360 160Q364 144 364 120Q364 97 360 80Q364 64 364 40Q364 17 360 0H280Q276 17 276 40Q276 64 280 80Q276 97 276 120Q276 144 280 160Q276 177 276 200Q276 224 280 240Q276 257 276 280Q276 304 280 320H150Q146 337 146 360Q146 384 150 400H310Q314 384 314 360Q314 337 310 320H360Q364 304 364 280Q364 257 360 240Q364 224 364 200Z"/><path id="g10" d="M160 480Q156 497 156 520Q156 544 160 560H240Q244 544 244 520Q244 497 240 480ZM324 40Q324 17 320 0H80Q76 17 76 40Q76 64 80 80H160Q156 97 156 120Q156 144 160 160Q156 177 156 200Q156 224 160 240Q156 257 156 280Q156 304 160 320H100Q96 337 96 360Q96 384 100 400H240Q244 384 244 360Q244 337 240 320Q244 304 244 280Q244 257 240 240Q244 224 244 200Q244 177 240 160Q244 144 244 120Q244 97 240 80H320Q324 64 324 40Z"/><path id="g11" d="M364 40Q364 17 360 0H220Q216 17 216 40Q216 64 220 80H180Q176 97 176 120Q176 144 180 160H120Q124 144 124 120Q124 97 120 80Q124 64 124 40Q124 17 120 0H40Q36 17 36 40Q36 64 40 80Q36 97 36 120Q36 144 40 160Q36 177 36 200Q36 224 40 240Q36 257 36 280Q36 304 40 320Q36 337 36 360Q36 384 40 400Q36 417 36 440Q36 464 40 480Q36 497 36 520Q36 544 40 560H120Q124 544 124 520Q124 497 120 480Q124 464 124 440Q124 417 120 400Q124 384 124 360Q124 337 120 320Q124 304 124 280Q124 257 120 240H180Q176 257 176 280Q176 304 180 320H220Q216 337 216 360Q216 384 220 400H340Q344 384 344 360Q344 337 340 320H260Q264 304 264 280Q264 257 260 240H220Q224 224 224 200Q224 177 220 160H260Q264 144 264 120Q264 97 260 80H360Q364 64 364 40Z"/><path id="g12" d="M110 320H150Q154 304 154 280Q154 257 150 240H120Q124 224 124 200Q124 177 120 160Q124 144 124 120Q124 97 120 80Q124 64 124 40Q124 17 120 0H40Q36 17 36 40Q36 64 40 80Q36 97 36 120Q36 144 40 160Q36 177 36 200Q36 224 40 240Q36 257 36 280Q36 304 40 320Q36 337 36 360Q36 384 40 400H110Q114 384 114 360Q114 337 110 320ZM364 200Q364 177 360 160Q364 144 364 120Q364 97 360 80Q364 64 364 40Q364 17 360 0H280Q276 17 276 40Q276 64 280 80Q276 97 276 120Q276 144 280 160Q276 177 276 200Q276 224 280 240Q276 257 276 280Q276 304 280 320H150Q146 337 146 360Q146 384 150 400H310Q314 384 314 360Q314 337 310 320H360Q364 304 364 280Q364 257 360 240Q364 224 364 200Z"/><path id="g13" d="M360 160H330Q334 144 334 120Q334 97 330 80H280Q284 64 284 40Q284 17 280 0H120Q116 17 116 40Q116 64 120 80H70Q66 97 66 120Q66 144 70 160H40Q36 177 36 200Q36 224 40 240H70Q66 257 66 280Q66 304 70 320H120Q116 337 116 360Q116 384 120 400H280Q284 384 284 360Q284 337 280 320H330Q334 304 334 280Q334 257 330 240H360Q364 224 364 200Q364 177 360 160ZM280 160Q276 177 276 200Q276 224 280 240H250Q246 257 246 280Q246 304 250 320H150Q154 304 154 280Q154 257 150 240H120Q124 224 124 200Q124 177 120 160H150Q154 144 154 120Q154 97 150 80H250Q246 97 246 120Q246 144 250 160Z"/><path id="g14" d="M360 160H320Q324 144 324 120Q324 97 320 80H280Q284 64 284 40Q284 17 280 0H120Q124 -16 124 -40Q124 -63 120 -80Q124 -96 124 -120Q124 -143 120 -160H40Q36 -143 36 -120Q36 -96 40 -80Q36 -63 36 -40Q36 -16 40 0Q36 17 36 40Q36 64 40 80Q36 97 36 120Q36 144 40 160Q36 177 36 200Q36 224 40 240Q36 257 36 280Q36 304 40 320Q36 337 36 360Q36 384 40 400H120Q124 384 124 360Q124 337 120 320H160Q164 304 164 280Q164 257 160 240H120Q124 224 124 200Q124 177 120 160Q124 144 124 120Q124 97 120 80H240Q236 97 236 120Q236 144 240 160H280Q276 177 276 200Q276 224 280 240H240Q236 257 236 280Q236 304 240 320H160Q156 337 156 360Q156 384 160 400H280Q284 384 284 360Q284 337 280 320H320Q324 304 324 280Q324 257 320 240H360Q364 224 364 200Q364 177 360 160Z"/><path id="g15" d="M364 280Q364 257 360 240H280Q276 257 276 280Q276 304 280 320H210Q214 304 214 280Q214 257 210 240H180Q184 224 184 200Q184 177 180 160Q184 144 184 120Q184 97 180 80H240Q244 64 244 40Q244 17 240 0H40Q36 17 36 40Q36 64 40 80H100Q96 97 96 120Q96 144 100 160Q96 177 96 200Q96 224 100 240Q96 257 96 280Q96 304 100 320H40Q36 337 36 360Q36 384 40 400H140Q144 384 144 360Q144 337 140 320H180Q176 337 176 360Q176 384 180 400H330Q334 384 334 360Q334 337 330 320H360Q364 304 364 280Z"/><path id="g16" d="M340 80H300Q304 64 304 40Q304 17 300 0H80Q76 17 76 40Q76 64 80 80H260Q256 97 256 120Q256 144 260 160H100Q96 177 96 200Q96 224 100 240H60Q56 257 56 280Q56 304 60 320H100Q96 337 96 360Q96 384 100 400H320Q324 384 324 360Q324 337 320 320H140Q144 304 144 280Q144 257 140 240H300Q304 224 304 200Q304 177 300 160H340Q344 144 344 120Q344 97 340 80Z"/><path id="g17" d="M320 80Q324 64 324 40Q324 17 320 0H160Q156 17 156 40Q156 64 160 80H120Q116 97 116 120Q116 144 120 160Q116 177 116 200Q116 224 120 240Q116 257 116 280Q116 304 120 320H40Q36 337 36 360Q36 384 40 400H120Q116 417 116 440Q116 464 120 480Q116 497 116 520Q116 544 120 560H200Q204 544 204 520Q204 497 200 480Q204 464 204 440Q204 417 200 400H320Q324 384 324 360Q324 337 320 320H200Q204 304 204 280Q204 257 200 240Q204 224 204 200Q204 177 200 160Q204 144 204 120Q204 97 200 80Z"/><path id="g18" d="M360 320H330Q334 304 334 280Q334 257 330 240H300Q304 224 304 200Q304 177 300 160H280Q284 144 284 120Q284 97 280 80H240Q244 64 244 40Q244 17 240 0H160Q156 17 156 40Q156 64 160 80H120Q116 97 116 120Q116 144 120 160H100Q96 177 96 200Q96 224 100 240H70Q66 257 66 280Q66 304 70 320H40Q36 337 36 360Q36 384 40 400H120Q124 384 124 360Q124 337 120 320H150Q154 304 154 280Q154 257 150 240H180Q184 224 184 200Q184 177 180 160H220Q216 177 216 200Q216 224 220 240H250Q246 257 246 280Q246 304 250 320H280Q276 337 276 360Q276 384 280 400H360Q364 384 364 360Q364 337 360 320Z"/><path id="g19" d="M360 320Q364 304 364 280Q364 257 360 240H330Q334 224 334 200Q334 177 330 160Q334 144 334 120Q334 97 330 80H310Q314 64 314 40Q314 17 310 0H250Q246 17 246 40Q246 64 250 80H230Q226 97 226 120Q226 144 230 160H170Q174 144 174 120Q174 97 170 80H150Q154 64 154 40Q154 17 150 0H90Q86 17 86 40Q86 64 90 80H70Q66 97 66 120Q66 144 70 160Q66 177 66 200Q66 224 70 240H40Q36 257 36 280Q36 304 40 320Q36 337 36 360Q36 384 40 400H120Q124 384 124 360Q124 337 120 320Q124 304 124 280Q124 257 120 240Q124 224 124 200Q124 177 120 160H150Q146 177 146 200Q146 224 150 240H170Q166 257 166 280Q166 304 170 320Q166 337 166 360Q166 384 170 400H230Q234 384 234 360Q234 337 230 320Q234 304 234 280Q234 257 230 240H250Q254 224 254 200Q254 177 250 160H280Q276 177 276 200Q276 224 280 240Q276 257 276 280Q276 304 280 320Q276 337 276 360Q276 384 280 400H360Q364 384 364 360Q364 337 360 320Z"/><path id="g20" d="M360 320H330Q334 304 334 280Q334 257 330 240H300Q304 224 304 200Q304 177 300 160H280Q284 144 284 120Q284 97 280 80H250Q254 64 254 40Q254 17 250 0H230Q234 -16 234 -40Q234 -63 230 -80H190Q194 -96 194 -120Q194 -143 190 -160H70Q66 -143 66 -120Q66 -96 70 -80H150Q146 -63 146 -40Q146 -16 150 0Q146 17 146 40Q146 64 150 80H110Q106 97 106 120Q106 144 110 160H90Q86 177 86 200Q86 224 90 240H60Q56 257 56 280Q56 304 60 320H30Q26 337 26 360Q26 384 30 400H110Q114 384 114 360Q114 337 110 320H140Q144 304 144 280Q144 257 140 240H170Q174 224 174 200Q174 177 170 160Q174 144 174 120Q174 97 170 80H200Q196 97 196 120Q196 144 200 160H220Q216 177 216 200Q216 224 220 240H250Q246 257 246 280Q246 304 250 320H280Q276 337 276 360Q276 384 280 400H360Q364 384 364 360Q364 337 360 320Z"/></defs><g class="ink" transform="translate(0 19.38) scale(0.02100 -0.02100)"><use xlink:href="#g4" x="761.9"/><use xlink:href="#g1" x="1161.9"/><use xlink:href="#g2" x="1561.9"/><use xlink:href="#g3" x="1961.9"/></g><g class="dim" transform="translate(0 46.68) scale(0.02100 -0.02100)"></g><g class="dim" transform="translate(0 46.68) scale(0.02100 -0.02100)"><use xlink:href="#g17" x="1561.9"/><use xlink:href="#g9" x="1961.9"/><use xlink:href="#g15" x="2361.9"/><use xlink:href="#g8" x="2761.9"/><use xlink:href="#g8" x="3161.9"/><use xlink:href="#g14" x="3961.9"/><use xlink:href="#g8" x="4361.9"/><use xlink:href="#g15" x="4761.9"/><use xlink:href="#g16" x="5161.9"/><use xlink:href="#g13" x="5561.9"/><use xlink:href="#g12" x="5961.9"/><use xlink:href="#g5" x="6361.9"/><use xlink:href="#g16" x="6761.9"/><use xlink:href="#g5" x="7561.9"/><use xlink:href="#g12" x="7961.9"/><use xlink:href="#g16" x="8361.9"/><use xlink:href="#g19" x="8761.9"/><use xlink:href="#g8" x="9161.9"/><use xlink:href="#g15" x="9561.9"/><use xlink:href="#g0" x="9961.9"/><use xlink:href="#g5" x="10761.9"/><use xlink:href="#g12" x="11161.9"/><use xlink:href="#g20" x="11561.9"/><use xlink:href="#g13" x="12361.9"/><use xlink:href="#g12" x="12761.9"/><use xlink:href="#g8" x="13161.9"/></g><g class="dim" transform="translate(0 73.98) scale(0.02100 -0.02100)"></g><g class="dim" transform="translate(0 73.98) scale(0.02100 -0.02100)"><use xlink:href="#g18" x="1561.9"/><use xlink:href="#g8" x="1961.9"/><use xlink:href="#g17" x="2361.9"/><use xlink:href="#g13" x="2761.9"/><use xlink:href="#g16" x="3561.9"/><use xlink:href="#g10" x="3961.9"/><use xlink:href="#g12" x="4361.9"/><use xlink:href="#g11" x="4761.9"/><use xlink:href="#g16" x="5161.9"/><use xlink:href="#g17" x="5961.9"/><use xlink:href="#g9" x="6361.9"/><use xlink:href="#g8" x="6761.9"/><use xlink:href="#g18" x="7561.9"/><use xlink:href="#g8" x="7961.9"/><use xlink:href="#g15" x="8361.9"/><use xlink:href="#g7" x="8761.9"/><use xlink:href="#g10" x="9161.9"/><use xlink:href="#g6" x="9561.9"/><use xlink:href="#g17" x="9961.9"/></g></svg>