<svg xmlns="http://www.w3.org/2000/svg" xmlns:xlink="http://www.w3.org/1999/xlink" width="544" height="152" viewBox="0 0 544 152" role="img"><style>:root{--bg:#ffffff;--ink:#1f2328;--dim:#59636e;--rule:#d1d9e0}@media(prefers-color-scheme:dark){:root{--bg:#0d1117;--ink:#e6edf3;--dim:#8b949e;--rule:#30363d}}.bg{fill:var(--bg)}.ink{fill:var(--ink)}.dim{fill:var(--dim)}.rule{fill:none;stroke:var(--rule)}</style><rect class="bg" width="100%" height="100%"/><defs><path id="g0" d="M300 320Q304 304 304 280Q304 257 300 240H100Q96 257 96 280Q96 304 100 320Z"/><path id="g1" d="M250 80Q254 64 254 40Q254 17 250 0H150Q146 17 146 40Q146 64 150 80Q146 97 146 120Q146 144 150 160H250Q254 144 254 120Q254 97 250 80Z"/><path id="g2" d="M324 40Q324 17 320 0H80Q76 17 76 40Q76 64 80 80H160Q156 97 156 120Q156 144 160 160Q156 177 156 200Q156 224 160 240Q156 257 156 280Q156 304 160 320Q156 337 156 360Q156 384 160 400H100Q96 417 96 440Q96 464 100 480H160Q156 497 156 520Q156 544 160 560H240Q244 544 244 520Q244 497 240 480Q244 464 244 440Q244 417 240 400Q244 384 244 360Q244 337 240 320Q244 304 244 280Q244 257 240 240Q244 224 244 200Q244 177 240 160Q244 144 244 120Q244 97 240 80H320Q324 64 324 40Z"/><path id="g3" d="M340 320H290Q294 304 294 280Q294 257 290 240H240Q244 224 244 200Q244 177 240 160H190Q194 144 194 120Q194 97 190 80H340Q344 64 344 40Q344 17 340 0H60Q56 17 56 40Q56 64 60 80H110Q106 97 106 120Q106 144 110 160H160Q156 177 156 200Q156 224 160 240H210Q206 257 206 280Q206 304 210 320H260Q256 337 256 360Q256 384 260 400Q256 417 256 440Q256 464 260 480H120Q124 464 124 440Q124 417 120 400H60Q56 417 56 440Q56 464 60 480H100Q96 497 96 520Q96 544 100 560H300Q304 544 304 520Q304 497 300 480H340Q344 464 344 440Q344 417 340 400Q344 384 344 360Q344 337 340 320Z"/><path id="g4" d="M360 80Q364 64 364 40Q364 17 360 0H280Q276 17 276 40Q276 64 280 80Q276 97 276 120Q276 144 280 160H120Q124 144 124 120Q124 97 120 80Q124 64 124 40Q124 17 120 0H40Q36 17 36 40Q36 64 40 80Q36 97 36 120Q36 144 40 160H70Q66 177 66 200Q66 224 70 240Q66 257 66 280Q66 304 70 320H90Q86 337 86 360Q86 384 90 400H120Q116 417 116 440Q116 464 120 480H140Q136 497 136 520Q136 544 140 560H260Q264 544 264 520Q264 497 260 480H280Q284 464 284 440Q284 417 280 400H310Q314 384 314 360Q314 337 310 320H330Q334 304 334 280Q334 257 330 240Q334 224 334 200Q334 177 330 160H360Q364 144 364 120Q364 97 360 80ZM246 280Q246 304 250 320H230Q226 337 226 360Q226 384 230 400H170Q174 384 174 360Q174 337 170 320H150Q154 304 154 280Q154 257 150 240H250Q246 257 246 280Z"/><path id="g5" d="M360 320H320Q324 304 324 280Q324 257 320 240H360Q364 224 364 200Q364 177 360 160Q364 144 364 120Q364 97 360 80H320Q324 64 324 40Q324 17 320 0H40Q36 17 36 40Q36 64 40 80Q36 97 36 120Q36 144 40 160Q36 177 36 200Q36 224 40 240Q36 257 36 280Q36 304 40 320Q36 337 36 360Q36 384 40 400Q36 417 36 440Q36 464 40 480Q36 497 36 520Q36 544 40 560H320Q324 544 324 520Q324 497 320 480H360Q364 464 364 440Q364 417 360 400Q364 384 364 360Q364 337 360 320ZM276 360Q276 384 280 400Q276 417 276 440Q276 464 280 480H120Q124 464 124 440Q124 417 120 400Q124 384 124 360Q124 337 120 320H280Q276 337 276 360ZM276 200Q276 224 280 240H120Q124 224 124 200Q124 177 120 160Q124 144 124 120Q124 97 120 80H280Q276 97 276 120Q276 144 280 160Q276 177 276 200Z"/><path id="g6" d="M360 160Q364 144 364 120Q364 97 360 80H320Q324 64 324 40Q324 17 320 0H120Q116 17 116 40Q116 64 120 80H80Q76 97 76 120Q76 144 80 160H40Q36 177 36 200Q36 224 40 240Q36 257 36 280Q36 304 40 320Q36 337 36 360Q36 384 40 400H80Q76 417 76 440Q76 464 80 480H120Q116 497 116 520Q116 544 120 560H320Q324 544 324 520Q324 497 320 480H360Q364 464 364 440Q364 417 360 400H280Q276 417 276 440Q276 464 280 480H160Q164 464 164 440Q164 417 160 400H120Q124 384 124 360Q124 337 120 320Q124 304 124 280Q124 257 120 240Q124 224 124 200Q124 177 120 160H160Q164 144 164 120Q164 97 160 80H280Q276 97 276 120Q276 144 280 160Z"/><path id="g7" d="M364 280Q364 257 360 240Q364 224 364 200Q364 177 360 160H320Q324 144 324 120Q324 97 320 80H280Q284 64 284 40Q284 17 280 0H40Q36 17 36 40Q36 64 40 80Q36 97 36 120Q36 144 40 160Q36 177 36 200Q36 224 40 240Q36 257 36 280Q36 304 40 320Q36 337 36 360Q36 384 40 400Q36 417 36 440Q36 464 40 480Q36 497 36 520Q36 544 40 560H280Q284 544 284 520Q284 497 280 480H320Q324 464 324 440Q324 417 320 400H360Q364 384 364 360Q364 337 360 320Q364 304 364 280ZM276 200Q276 224 280 240Q276 257 276 280Q276 304 280 320Q276 337 276 360Q276 384 280 400H240Q236 417 236 440Q236 464 240 480H120Q124 464 124 440Q124 417 120 400Q124 384 124 360Q124 337 120 320Q124 304 124 280Q124 257 120 240Q124 224 124 200Q124 177 120 160Q124 144 124 120Q124 97 120 80H240Q236 97 236 120Q236 144 240 160H280Q276 177 276 200Z"/><path id="g8" d="M160 240Q164 224 164 200Q164 177 160 160Q164 144 164 120Q164 97 160 80H320Q324 64 324 40Q324 17 320 0H80Q76 17 76 40Q76 64 80 80Q76 97 76 120Q76 144 80 160Q76 177 76 200Q76 224 80 240Q76 257 76 280Q76 304 80 320Q76 337 76 360Q76 384 80 400Q76 417 76 440Q76 464 80 480Q76 497 76 520Q76 544 80 560H320Q324 544 324 520Q324 497 320 480H160Q164 464 164 440Q164 417 160 400Q164 384 164 360Q164 337 160 320H320Q324 304 324 280Q324 257 320 240Z"/><path id="g9" d="M324 280Q324 257 320 240H160Q164 224 164 200Q164 177 160 160Q164 144 164 120Q164 97 160 80Q164 64 164 40Q164 17 160 0H80Q76 17 76 40Q76 64 80 80Q76 97 76 120Q76 144 80 160Q76 177 76 200Q76 224 80 240Q76 257 76 280Q76 304 80 320Q76 337 76 360Q76 384 80 400Q76 417 76 440Q76 464 80 480Q76 497 76 520Q76 544 80 560H320Q324 544 324 520Q324 497 320 480H160Q164 464 164 440Q164 417 160 400Q164 384 164 360Q164 337 160 320H320Q324 304 324 280Z"/><path id="g10" d="M364 280Q364 257 360 240Q364 224 364 200Q364 177 360 160Q364 144 364 120Q364 97 360 80H320Q324 64 324 40Q324 17 320 0H120Q116 17 116 40Q116 64 120 80H80Q76 97 76 120Q76 144 80 160H40Q36 177 36 200Q36 224 40 240Q36 257 36 280Q36 304 40 320Q36 337 36 360Q36 384 40 400H80Q76 417 76 440Q76 464 80 480H120Q116 497 116 520Q116 544 120 560H320Q324 544 324 520Q324 497 320 480H360Q364 464 364 440Q364 417 360 400H280Q276 417 276 440Q276 464 280 480H160Q164 464 164 440Q164 417 160 400H120Q124 384 124 360Q124 337 120 320Q124 304 124 280Q124 257 120 240Q124 224 124 200Q124 177 120 160H160Q164 144 164 120Q164 97 160 80H280Q276 97 276 120Q276 144 280 160Q276 177 276 200Q276 224 280 240H220Q216 257 216 280Q216 304 220 320H360Q364 304 364 280Z"/><path id="g11" d="M364 440Q364 417 360 400Q364 384 364 360Q364 337 360 320Q364 304 364 280Q364 257 360 240Q364 224 364 200Q364 177 360 160Q364 144 364 120Q364 97 360 80Q364 64 364 40Q364 17 360 0H280Q276 17 276 40Q276 64 280 80Q276 97 276 120Q276 144 280 160Q276 177 276 200Q276 224 280 240H120Q124 224 124 200Q124 177 120 160Q124 144 124 120Q124 97 120 80Q124 64 124 40Q124 17 120 0H40Q36 17 36 40Q36 64 40 80Q36 97 36 120Q36 144 40 160Q36 177 36 200Q36 224 40 240Q36 257 36 280Q36 304 40 320Q36 337 36 360Q36 384 40 400Q36 417 36 440Q36 464 40 480Q36 497 36 520Q36 544 40 560H120Q124 544 124 520Q124 497 120 480Q124 464 124 440Q124 417 120 400Q124 384 124 360Q124 337 120 320H280Q276 337 276 360Q276 384 280 400Q276 417 276 440Q276 464 280 480Q276 497 276 520Q276 544 280 560H360Q364 544 364 520Q364 497 360 480Q364 464 364 440Z"/><path id="g12" d="M300 80Q304 64 304 40Q304 17 300 0H100Q96 17 96 40Q96 64 100 80H160Q156 97 156 120Q156 144 160 160Q156 177 156 200Q156 224 160 240Q156 257 156 280Q156 304 160 320Q156 337 156 360Q156 384 160 400Q156 417 156 440Q156 464 160 480H100Q96 497 96 520Q96 544 100 560H300Q304 544 304 520Q304 497 300 480H240Q244 464 244 440Q244 417 240 400Q244 384 244 360Q244 337 240 320Q244 304 244 280Q244 257 240 240Q244 224 244 200Q244 177 240 160Q244 144 244 120Q244 97 240 80Z"/><path id="g13" d="M340 480H280Q284 464 284 440Q284 417 280 400Q284 384 284 360Q284 337 280 320Q284 304 284 280Q284 257 280 240Q284 224 284 200Q284 177 280 160Q284 144 284 120Q284 97 280 80H240Q244 64 244 40Q244 17 240 0H80Q76 17 76 40Q76 64 80 80H40Q36 97 36 120Q36 144 40 160H120Q124 144 124 120Q124 97 120 80H200Q196 97 196 120Q196 144 200 160Q196 177 196 200Q196 224 200 240Q196 257 196 280Q196 304 200 320Q196 337 196 360Q196 384 200 400Q196 417 196 440Q196 464 200 480H140Q136 497 136 520Q136 544 140 560H340Q344 544 344 520Q344 497 340 480Z"/><path id="g14" d="M360 80Q364 64 364 40Q364 17 360 0H280Q276 17 276 40Q276 64 280 80H250Q246 97 246 120Q246 144 250 160H190Q186 177 186 200Q186 224 190 240H120Q124 224 124 200Q124 177 120 160Q124 144 124 120Q124 97 120 80Q124 64 124 40Q124 17 120 0H40Q36 17 36 40Q36 64 40 80Q36 97 36 120Q36 144 40 160Q36 177 36 200Q36 224 40 240Q36 257 36 280Q36 304 40 320Q36 337 36 360Q36 384 40 400Q36 417 36 440Q36 464 40 480Q36 497 36 520Q36 544 40 560H120Q124 544 124 520Q124 497 120 480Q124 464 124 440Q124 417 120 400Q124 384 124 360Q124 337 120 320H190Q186 337 186 360Q186 384 190 400H250Q246 417 246 440Q246 464 250 480H280Q276 497 276 520Q276 544 280 560H360Q364 544 364 520Q364 497 360 480H330Q334 464 334 440Q334 417 330 400H270Q274 384 274 360Q274 337 270 320H220Q224 304 224 280Q224 257 220 240H270Q274 224 274 200Q274 177 270 160H330Q334 144 334 120Q334 97 330 80Z"/><path id="g15" d="M364 40Q364 17 360 0H80Q76 17 76 40Q76 64 80 80Q76 97 76 120Q76 144 80 160Q76 177 76 200Q76 224 80 240Q76 257 76 280Q76 304 80 320Q76 337 76 360Q76 384 80 400Q76 417 76 440Q76 464 80 480Q76 497 76 520Q76 544 80 560H160Q164 544 164 520Q164 497 160 480Q164 464 164 440Q164 417 160 400Q164 384 164 360Q164 337 160 320Q164 304 164 280Q164 257 160 240Q164 224 164 200Q164 177 160 160Q164 144 164 120Q164 97 160 80H360Q364 64 364 40Z"/><path id="g16" d="M364 440Q364 417 360 400Q364 384 364 360Q364 337 360 320Q364 304 364 280Q364 257 360 240Q364 224 364 200Q364 177 360 160Q364 144 364 120Q364 97 360 80Q364 64 364 40Q364 17 360 0H280Q276 17 276 40Q276 64 280 80Q276 97 276 120Q276 144 280 160Q276 177 276 200Q276 224 280 240Q276 257 276 280Q276 304 280 320Q276 337 276 360Q276 384 280 400H250Q254 384 254 360Q254 337 250 320Q254 304 254 280Q254 257 250 240H230Q234 224 234 200Q234 177 230 160Q234 144 234 120Q234 97 230 80H170Q166 97 166 120Q166 144 170 160Q166 177 166 200Q166 224 170 240H150Q146 257 146 280Q146 304 150 320Q146 337 146 360Q146 384 150 400H120Q124 384 124 360Q124 337 120 320Q124 304 124 280Q124 257 120 240Q124 224 124 200Q124 177 120 160Q124 144 124 120Q124 97 120 80Q124 64 124 40Q124 17 120 0H40Q36 17 36 40Q36 64 40 80Q36 97 36 120Q36 144 40 160Q36 177 36 200Q36 224 40 240Q36 257 36 280Q36 304 40 320Q36 337 36 360Q36 384 40 400Q36 417 36 440Q36 464 40 480Q36 497 36 520Q36 544 40 560H140Q144 544 144 520Q144 497 140 480H170Q174 464 174 440Q174 417 170 400H185Q189 384 189 360Q189 337 185 320H215Q211 337 211 360Q211 384 215 400H230Q226 417 226 440Q226 464 230 480H260Q256 497 256 520Q256 544 260 560H360Q364 544 364 520Q364 497 360 480Q364 464 364 440Z"/><path id="g17" d="M364 440Q364 417 360 400Q364 384 364 360Q364 337 360 320Q364 304 364 280Q364 257 360 240Q364 224 364 200Q364 177 360 160Q364 144 364 120Q364 97 360 80Q364 64 364 40Q364 17 360 0H280Q276 17 276 40Q276 64 280 80H230Q226 97 226 120Q226 144 230 160H200Q196 177 196 200Q196 224 200 240H160Q156 257 156 280Q156 304 160 320H120Q124 304 124 280Q124 257 120 240Q124 224 124 200Q124 177 120 160Q124 144 124 120Q124 97 120 80Q124 64 124 40Q124 17 120 0H40Q36 17 36 40Q36 64 40 80Q36 97 36 120Q36 144 40 160Q36 177 36 200Q36 224 40 240Q36 257 36 280Q36 304 40 320Q36 337 36 360Q36 384 40 400Q36 417 36 440Q36 464 40 480Q36 497 36 520Q36 544 40 560H140Q144 544 144 520Q144 497 140 480H170Q174 464 174 440Q174 417 170 400H200Q204 384 204 360Q204 337 200 320H240Q244 304 244 280Q244 257 240 240H280Q276 257 276 280Q276 304 280 320Q276 337 276 360Q276 384 280 400Q276 417 276 440Q276 464 280 480Q276 497 276 520Q276 544 280 560H360Q364 544 364 520Q364 497 360 480Q364 464 364 440Z"/><path id="g18" d="M364 280Q364 257 360 240Q364 224 364 200Q364 177 360 160H330Q334 144 334 120Q334 97 330 80H280Q284 64 284 40Q284 17 280 0H120Q116 17 116 40Q116 64 120 80H70Q66 97 66 120Q66 144 70 160H40Q36 177 36 200Q36 224 40 240Q36 257 36 280Q36 304 40 320Q36 337 36 360Q36 384 40 400H70Q66 417 66 440Q66 464 70 480H120Q116 497 116 520Q116 544 120 560H280Q284 544 284 520Q284 497 280 480H330Q334 464 334 440Q334 417 330 400H360Q364 384 364 360Q364 337 360 320Q364 304 364 280ZM276 200Q276 224 280 240Q276 257 276 280Q276 304 280 320Q276 337 276 360Q276 384 280 400H250Q246 417 246 440Q246 464 250 480H150Q154 464 154 440Q154 417 150 400H120Q124 384 124 360Q124 337 120 320Q124 304 124 280Q124 257 120 240Q124 224 124 200Q124 177 120 160H150Q154 144 154 120Q154 97 150 80H250Q246 97 246 120Q246 144 250 160H280Q276 177 276 200Z"/><path id="g19" d="M360 400Q364 384 364 360Q364 337 360 320H320Q324 304 324 280Q324 257 320 240H120Q124 224 124 200Q124 177 120 160Q124 144 124 120Q124 97 120 80Q124 64 124 40Q124 17 120 0H40Q36 17 36 40Q36 64 40 80Q36 97 36 120Q36 144 40 160Q36 177 36 200Q36 224 40 240Q36 257 36 280Q36 304 40 320Q36 337 36 360Q36 384 40 400Q36 417 36 440Q36 464 40 480Q36 497 36 520Q36 544 40 560H320Q324 544 324 520Q324 497 320 480H360Q364 464 364 440Q364 417 360 400ZM276 360Q276 384 280 400Q276 417 276 440Q276 464 280 480H120Q124 464 124 440Q124 417 120 400Q124 384 124 360Q124 337 120 320H280Q276 337 276 360Z"/><path id="g20" d="M360 80Q364 64 364 40Q364 17 360 0H280Q276 17 276 40Q276 64 280 80H250Q246 97 246 120Q246 144 250 160H220Q216 177 216 200Q216 224 220 240H120Q124 224 124 200Q124 177 120 160Q124 144 124 120Q124 97 120 80Q124 64 124 40Q124 17 120 0H40Q36 17 36 40Q36 64 40 80Q36 97 36 120Q36 144 40 160Q36 177 36 200Q36 224 40 240Q36 257 36 280Q36 304 40 320Q36 337 36 360Q36 384 40 400Q36 417 36 440Q36 464 40 480Q36 497 36 520Q36 544 40 560H320Q324 544 324 520Q324 497 320 480H360Q364 464 364 440Q364 417 360 400H340Q344 384 344 360Q344 337 340 320H280Q284 304 284 280Q284 257 280 240H300Q304 224 304 200Q304 177 300 160H330Q334 144 334 120Q334 97 330 80ZM256 360Q256 384 260 400Q256 417 256 440Q256 464 260 480H120Q124 464 124 440Q124 417 120 400Q124 384 124 360Q124 337 120 320H260Q256 337 256 360Z"/><path id="g21" d="M364 200Q364 177 360 160Q364 144 364 120Q364 97 360 80H320Q324 64 324 40Q324 17 320 0H80Q76 17 76 40Q76 64 80 80H40Q36 97 36 120Q36 144 40 160H120Q124 144 124 120Q124 97 120 80H280Q276 97 276 120Q276 144 280 160Q276 177 276 200Q276 224 280 240H80Q76 257 76 280Q76 304 80 320H40Q36 337 36 360Q36 384 40 400Q36 417 36 440Q36 464 40 480H80Q76 497 76 520Q76 544 80 560H320Q324 544 324 520Q324 497 320 480H360Q364 464 364 440Q364 417 360 400H280Q276 417 276 440Q276 464 280 480H120Q124 464 124 440Q124 417 120 400Q124 384 124 360Q124 337 120 320H320Q324 304 324 280Q324 257 320 240H360Q364 224 364 200Z"/><path id="g22" d="M360 480H240Q244 464 244 440Q244 417 240 400Q244 384 244 360Q244 337 240 320Q244 304 244 280Q244 257 240 240Q244 224 244 200Q244 177 240 160Q244 144 244 120Q244 97 240 80Q244 64 244 40Q244 17 240 0H160Q156 17 156 40Q156 64 160 80Q156 97 156 120Q156 144 160 160Q156 177 156 200Q156 224 160 240Q156 257 156 280Q156 304 160 320Q156 337 156 360Q156 384 160 400Q156 417 156 440Q156 464 160 480H40Q36 497 36 520Q36 544 40 560H360Q364 544 364 520Q364 497 360 480Z"/><path id="g23" d="M364 440Q364 417 360 400Q364 384 364 360Q364 337 360 320Q364 304 364 280Q364 257 360 240Q364 224 364 200Q364 177 360 160Q364 144 364 120Q364 97 360 80H320Q324 64 324 40Q324 17 320 0H80Q76 17 76 40Q76 64 80 80H40Q36 97 36 120Q36 144 40 160Q36 177 36 200Q36 224 40 240Q36 257 36 280Q36 304 40 320Q36 337 36 360Q36 384 40 400Q36 417 36 440Q36 464 40 480Q36 497 36 520Q36 544 40 560H120Q124 544 124 520Q124 497 120 480Q124 464 124 440Q124 417 120 400Q124 384 124 360Q124 337 120 320Q124 304 124 280Q124 257 120 240Q124 224 124 200Q124 177 120 160Q124 144 124 120Q124 97 120 80H280Q276 97 276 120Q276 144 280 160Q276 177 276 200Q276 224 280 240Q276 257 276 280Q276 304 280 320Q276 337 276 360Q276 384 280 400Q276 417 276 440Q276 464 280 480Q276 497 276 520Q276 544 280 560H360Q364 544 364 520Q364 497 360 480Q364 464 364 440Z"/><path id="g24" d="M364 440Q364 417 360 400Q364 384 364 360Q364 337 360 320H330Q334 304 334 280Q334 257 330 240H300Q304 224 304 200Q304 177 300 160H280Q284 144 284 120Q284 97 280 80H240Q244 64 244 40Q244 17 240 0H160Q156 17 156 40Q156 64 160 80H120Q116 97 116 120Q116 144 120 160H100Q96 177 96 200Q96 224 100 240H70Q66 257 66 280Q66 304 70 320H40Q36 337 36 360Q36 384 40 400Q36 417 36 440Q36 464 40 480Q36 497 36 520Q36 544 40 560H120Q124 544 124 520Q124 497 120 480Q124 464 124 440Q124 417 120 400Q124 384 124 360Q124 337 120 320H150Q154 304 154 280Q154 257 150 240H180Q184 224 184 200Q184 177 180 160H220Q216 177 216 200Q216 224 220 240H250Q246 257 246 280Q246 304 250 320H280Q276 337 276 360Q276 384 280 400Q276 417 276 440Q276 464 280 480Q276 497 276 520Q276 544 280 560H360Q364 544 364 520Q364 497 360 480Q364 464 364 440Z"/><path id="g25" d="M364 440Q364 417 360 400Q364 384 364 360Q364 337 360 320Q364 304 364 280Q364 257 360 240H330Q334 224 334 200Q334 177 330 160Q334 144 334 120Q334 97 330 80H310Q314 64 314 40Q314 17 310 0H250Q246 17 246 40Q246 64 250 80H230Q226 97 226 120Q226 144 230 160H170Q174 144 174 120Q174 97 170 80H150Q154 64 154 40Q154 17 150 0H90Q86 17 86 40Q86 64 90 80H70Q66 97 66 120Q66 144 70 160Q66 177 66 200Q66 224 70 240H40Q36 257 36 280Q36 304 40 320Q36 337 36 360Q36 384 40 400Q36 417 36 440Q36 464 40 480Q36 497 36 520Q36 544 40 560H120Q124 544 124 520Q124 497 120 480Q124 464 124 440Q124 417 120 400Q124 384 124 360Q124 337 120 320Q124 304 124 280Q124 257 120 240Q124 224 124 200Q124 177 120 160H150Q146 177 146 200Q146 224 150 240H170Q166 257 166 280Q166 304 170 320Q166 337 166 360Q166 384 170 400Q166 417 166 440Q166 464 170 480Q166 497 166 520Q166 544 170 560H230Q234 544 234 520Q234 497 230 480Q234 464 234 440Q234 417 230 400Q234 384 234 360Q234 337 230 320Q234 304 234 280Q234 257 230 240H250Q254 224 254 200Q254 177 250 160H280Q276 177 276 200Q276 224 280 240Q276 257 276 280Q276 304 280 320Q276 337 276 360Q276 384 280 400Q276 417 276 440Q276 464 280 480Q276 497 276 520Q276 544 280 560H360Q364 544 364 520Q364 497 360 480Q364 464 364 440Z"/><path id="g26" d="M340 400H310Q314 384 314 360Q314 337 310 320H250Q254 304 254 280Q254 257 250 240H190Q194 224 194 200Q194 177 190 160H140Q144 144 144 120Q144 97 140 80H340Q344 64 344 40Q344 17 340 0H60Q56 17 56 40Q56 64 60 80Q56 97 56 120Q56 144 60 160H110Q106 177 106 200Q106 224 110 240H170Q166 257 166 280Q166 304 170 320H230Q226 337 226 360Q226 384 230 400H260Q256 417 256 440Q256 464 260 480H60Q56 497 56 520Q56 544 60 560H340Q344 544 344 520Q344 497 340 480Q344 464 344 440Q344 417 340 400Z"/><path id="j0" d="M94 -15V47H156V108H217V170H279V232H341V294H403V418H464V850H537V418H599V294H660V170H722V108H784V47H846V-15H969V-89H835V-27H773V36H711V98H650V160H588V283H526V407H475V283H413V221H352V160H290V98H228V36H166V-27H105V-89H31V-15Z"/><path id="j1" d="M94 727H464V850H537V727H907V530H835V654H166V530H94ZM217 541H784V469H217ZM156 -15V47H279V170H341V283H94V356H907V283H660V-15H896V108H969V-27H907V-89H650V-27H588V283H413V160H352V36H290V-27H166V-89H31V-15Z"/><path id="j2" d="M217 665H464V778H31V850H969V778H537V665H784V160H217ZM31 603H105V47H896V603H969V-89H896V-27H105V-89H31ZM464 479V592H290V479ZM711 479V592H537V479ZM464 232V407H290V232ZM711 232V407H537V232Z"/><path id="j3" d="M156 283H105V221H31V294H94V356H156V418H217V479H279V592H31V665H156V850H228V665H341V727H588V850H660V727H835V778H773V850H846V788H907V727H969V654H660V541H907V-27H846V-89H711V-15H835V98H660V-89H588V98H475V-89H403V541H588V654H352V469H290V418H352V345H290V294H352V160H279V283H228V-89H156ZM835 356V469H660V356ZM588 356V469H475V356ZM279 356V407H228V356ZM835 170V283H660V170ZM588 170V283H475V170Z"/><path id="j4" d="M464 479H650V850H722V479H969V407H722V-89H650V407H464ZM94 788H413V716H94ZM31 603H475V530H31ZM94 479H413V407H94ZM94 356H413V283H94ZM94 232H413V-27H166V-89H94ZM341 47V160H166V47Z"/><path id="j5" d="M31 418H156V479H217V530H31V603H279V850H352V727H403V788H475V716H413V654H352V603H475V530H413V479H475V407H403V469H352V345H279V469H228V407H166V345H31ZM94 -15V47H217V108H279V160H31V232H279V294H352V232H526V603H650V665H711V716H526V788H969V716H784V654H722V603H907V98H846V47H907V-15H969V-89H896V-27H835V36H773V98H722V36H660V-27H599V-89H526V-15H588V47H650V98H526V160H352V108H413V47H475V-89H403V36H341V98H290V36H228V-27H105V-89H31V-15ZM156 716H94V788H166V727H228V654H156ZM835 479V530H599V479ZM835 356V407H599V356ZM835 170V283H599V170Z"/></defs><g class="ink" transform="translate(0 36.28) scale(0.02600 -0.02600)"><use xlink:href="#g13" x="615.4"/><use xlink:href="#g8" x="1015.4"/><use xlink:href="#g21" x="1415.4"/><use xlink:href="#g23" x="1815.4"/><use xlink:href="#g21" x="2215.4"/><use xlink:href="#g19" x="3015.4"/><use xlink:href="#g8" x="3415.4"/><use xlink:href="#g20" x="3815.4"/><use xlink:href="#g8" x="4215.4"/><use xlink:href="#g26" x="4615.4"/><use xlink:href="#g5" x="5415.4"/><use xlink:href="#g4" x="5815.4"/><use xlink:href="#g26" x="6215.4"/><use xlink:href="#g4" x="6615.4"/><use xlink:href="#g20" x="7015.4"/><use xlink:href="#g18" x="7415.4"/><use xlink:href="#g22" x="7815.4"/><use xlink:href="#g0" x="8615.4"/><use xlink:href="#g3" x="9415.4"/><use xlink:href="#g2" x="9815.4"/><use xlink:href="#g0" x="10615.4"/><use xlink:href="#g21" x="11415.4"/><use xlink:href="#g8" x="11815.4"/><use xlink:href="#g24" x="12215.4"/><use xlink:href="#g12" x="12615.4"/><use xlink:href="#g15" x="13015.4"/><use xlink:href="#g15" x="13415.4"/><use xlink:href="#g8" x="13815.4"/></g><g class="ink" transform="translate(0 66.18) scale(0.02600 -0.02600)"><use xlink:href="#g12" x="615.4"/><use xlink:href="#g25" x="1415.4"/><use xlink:href="#g18" x="1815.4"/><use xlink:href="#g20" x="2215.4"/><use xlink:href="#g14" x="2615.4"/><use xlink:href="#g18" x="3415.4"/><use xlink:href="#g17" x="3815.4"/><use xlink:href="#g22" x="4615.4"/><use xlink:href="#g11" x="5015.4"/><use xlink:href="#g8" x="5415.4"/><use xlink:href="#g19" x="6215.4"/><use xlink:href="#g4" x="6615.4"/><use xlink:href="#g20" x="7015.4"/><use xlink:href="#g22" x="7415.4"/><use xlink:href="#g21" x="7815.4"/><use xlink:href="#g18" x="8615.4"/><use xlink:href="#g9" x="9015.4"/><use xlink:href="#g4" x="9815.4"/><use xlink:href="#g12" x="10215.4"/><use xlink:href="#g22" x="11015.4"/><use xlink:href="#g11" x="11415.4"/><use xlink:href="#g4" x="11815.4"/><use xlink:href="#g22" x="12215.4"/><use xlink:href="#g5" x="13015.4"/><use xlink:href="#g20" x="13415.4"/><use xlink:href="#g8" x="13815.4"/><use xlink:href="#g4" x="14215.4"/><use xlink:href="#g14" x="14615.4"/><use xlink:href="#g1" x="15015.4"/></g><g class="dim" transform="translate(0 96.08) scale(0.02600 -0.02600)"><use xlink:href="#g12" x="615.4"/><use xlink:href="#g16" x="1415.4"/><use xlink:href="#g8" x="1815.4"/><use xlink:href="#g4" x="2215.4"/><use xlink:href="#g17" x="2615.4"/><use xlink:href="#g22" x="3415.4"/><use xlink:href="#g18" x="3815.4"/><use xlink:href="#g16" x="4615.4"/><use xlink:href="#g18" x="5015.4"/><use xlink:href="#g24" x="5415.4"/><use xlink:href="#g8" x="5815.4"/><use xlink:href="#g22" x="6615.4"/><use xlink:href="#g11" x="7015.4"/><use xlink:href="#g8" x="7415.4"/><use xlink:href="#g25" x="8215.4"/><use xlink:href="#g18" x="8615.4"/><use xlink:href="#g20" x="9015.4"/><use xlink:href="#g15" x="9415.4"/><use xlink:href="#g7" x="9815.4"/><use xlink:href="#g1" x="10215.4"/><use xlink:href="#g4" x="11015.4"/><use xlink:href="#g12" x="11415.4"/><use xlink:href="#g12" x="12215.4"/><use xlink:href="#g21" x="12615.4"/><use xlink:href="#g22" x="13415.4"/><use xlink:href="#g11" x="13815.4"/><use xlink:href="#g8" x="14215.4"/></g><g class="dim" transform="translate(0 125.98) scale(0.02600 -0.02600)"><use xlink:href="#g15" x="615.4"/><use xlink:href="#g8" x="1015.4"/><use xlink:href="#g24" x="1415.4"/><use xlink:href="#g8" x="1815.4"/><use xlink:href="#g20" x="2215.4"/><use xlink:href="#g1" x="2615.4"/><use xlink:href="#g21" x="3415.4"/><use xlink:href="#g8" x="3815.4"/><use xlink:href="#g4" x="4215.4"/><use xlink:href="#g20" x="4615.4"/><use xlink:href="#g6" x="5015.4"/><use xlink:href="#g11" x="5415.4"/><use xlink:href="#g12" x="5815.4"/><use xlink:href="#g17" x="6215.4"/><use xlink:href="#g10" x="6615.4"/><use xlink:href="#g9" x="7415.4"/><use xlink:href="#g18" x="7815.4"/><use xlink:href="#g20" x="8215.4"/><use xlink:href="#g21" x="9015.4"/><use xlink:href="#g4" x="9415.4"/><use xlink:href="#g9" x="9815.4"/><use xlink:href="#g8" x="10215.4"/><use xlink:href="#g4" x="11015.4"/><use xlink:href="#g10" x="11415.4"/><use xlink:href="#g12" x="11815.4"/><use xlink:href="#g1" x="12215.4"/></g><style>.cv{fill:var(--bg)}.cu{fill:var(--ink)}@keyframes bl{50%{opacity:0}}@keyframes on{to{opacity:1}}@keyframes off{to{opacity:0}}@keyframes k0{to{transform:translateX(357.6px)}}.k0{animation:k0 0.884s steps(34) 0.300s forwards}.g0{opacity:0;animation:on 0s 0.300s forwards,off 0s 1.184s forwards}@keyframes m0{to{transform:translateX(353.6px)}}.m0{animation:m0 0.884s steps(34) 0.300s forwards,bl 1.06s step-end infinite}@keyframes k1{to{transform:translateX(388.8px)}}.k1{animation:k1 0.962s steps(37) 1.244s forwards}.g1{opacity:0;animation:on 0s 1.244s forwards}@keyframes m1{to{transform:translateX(384.8px)}}.m1{animation:m1 0.962s steps(37) 1.244s forwards,bl 1.06s step-end infinite}@keyframes k2{to{transform:translateX(368.0px)}}.k2{animation:k2 0.210s ease-out 2.266s forwards}@keyframes k3{to{transform:translateX(316.0px)}}.k3{animation:k3 0.180s ease-out 2.536s forwards}@media (prefers-reduced-motion:reduce){.cv{transform:translateX(552px)}.cv,.cu,g[class^=g]{animation:none!important}g[class^=g]{opacity:0}}</style><rect class="cv k0" x="14.0" y="0.0" width="544" height="45.9"/><g class="g0"><rect class="cu m0" x="16.0" y="17.0" width="10.4" height="20.8"/></g><rect class="cv k1" x="14.0" y="45.9" width="544" height="29.9"/><g class="g1"><rect class="cu m1" x="16.0" y="46.9" width="10.4" height="20.8"/></g><rect class="cv k2" x="14.0" y="75.8" width="544" height="29.9"/><rect class="cv k3" x="14.0" y="105.7" width="544" height="46.3"/><style>@keyframes fade{to{opacity:1}}.nt{opacity:0;animation:fade .6s 2.776s forwards}@media (prefers-reduced-motion:reduce){.nt{opacity:1;animation:none}}</style><g class="nt ink" transform="translate(0 36.28) scale(0.02200 -0.02200)"><use xlink:href="#j0" x="17981.8"/><use xlink:href="#j5" x="18981.8"/><use xlink:href="#j3" x="19981.8"/><use xlink:href="#j1" x="20981.8"/><use xlink:href="#j4" x="21981.8"/><use xlink:href="#j2" x="22981.8"/></g></svg>