<svg xmlns="http://www.w3.org/2000/svg" xmlns:xlink="http://www.w3.org/1999/xlink" width="915" height="208" viewBox="0 0 915 208" role="img"><rect width="100%" height="100%" fill="#0d1117"/><defs><path id="g0" d="M-20 -512V1921H1253V-512Z"/><path id="g1" d="M925 1370V1591H1080V1370ZM309 1370V1591H463V1370ZM617 1680V1901H771V1680ZM0 1680V1901H154V1680ZM925 -492V-271H1080V-492ZM309 -492V-271H463V-492ZM617 -182V39H771V-182ZM0 -182V39H154V-182ZM925 129V350H1080V129ZM309 129V350H463V129ZM617 438V660H771V438ZM0 438V660H154V438ZM925 749V971H1080V749ZM309 749V971H463V749ZM617 1059V1280H771V1059ZM0 1059V1280H154V1059Z"/><path id="j0" d="M341 418H403V541H464V850H537V665H969V592H599V418H907V345H599V232H907V160H599V-89H526V530H475V407H413V345H341ZM217 469H166V345H105V283H31V356H94V479H156V603H217V727H279V850H352V716H290V-89H217Z"/><path id="j1" d="M185 850H752V530H185ZM679 603V778H258V603ZM556 418H937V-89H864V-27H628V-89H556ZM62 418H443V-27H134V-89H62ZM864 47V345H628V47ZM371 47V345H134V47Z"/></defs><g fill="#e6edf3" transform="translate(0 28.48) scale(0.00781 -0.00781)"><use xlink:href="#g0" x="3281.0"/><use xlink:href="#g0" x="4514.0"/><use xlink:href="#g0" x="5747.0"/><use xlink:href="#g0" x="6980.0"/><use xlink:href="#g0" x="8213.0"/><use xlink:href="#g0" x="9446.0"/><use xlink:href="#g0" x="10679.0"/><use xlink:href="#g0" x="11912.0"/><use xlink:href="#g0" x="13145.0"/><use xlink:href="#g0" x="14378.0"/><use xlink:href="#g0" x="15611.0"/><use xlink:href="#g0" x="48902.0"/><use xlink:href="#g0" x="50135.0"/><use xlink:href="#g0" x="51368.0"/><use xlink:href="#g0" x="78494.0"/><use xlink:href="#g0" x="79727.0"/><use xlink:href="#g0" x="80960.0"/><use xlink:href="#g0" x="82193.0"/><use xlink:href="#g0" x="83426.0"/></g><g fill="#e6edf3" transform="translate(0 44.48) scale(0.00781 -0.00781)"><use xlink:href="#g1" x="2048.0"/><use xlink:href="#g1" x="3281.0"/><use xlink:href="#g0" x="4514.0"/><use xlink:href="#g0" x="5747.0"/><use xlink:href="#g0" x="6980.0"/><use xlink:href="#g1" x="8213.0"/><use xlink:href="#g1" x="9446.0"/><use xlink:href="#g1" x="10679.0"/><use xlink:href="#g1" x="11912.0"/><use xlink:href="#g1" x="13145.0"/><use xlink:href="#g0" x="14378.0"/><use xlink:href="#g0" x="15611.0"/><use xlink:href="#g0" x="16844.0"/><use xlink:href="#g1" x="47669.0"/><use xlink:href="#g1" x="48902.0"/><use xlink:href="#g1" x="50135.0"/><use xlink:href="#g1" x="77261.0"/><use xlink:href="#g1" x="78494.0"/><use xlink:href="#g0" x="79727.0"/><use xlink:href="#g0" x="80960.0"/><use xlink:href="#g0" x="82193.0"/></g><g fill="#e6edf3" transform="translate(0 60.48) scale(0.00781 -0.00781)"><use xlink:href="#g1" x="3281.0"/><use xlink:href="#g0" x="4514.0"/><use xlink:href="#g0" x="5747.0"/><use xlink:href="#g0" x="6980.0"/><use xlink:href="#g1" x="13145.0"/><use xlink:href="#g0" x="14378.0"/><use xlink:href="#g0" x="15611.0"/><use xlink:href="#g0" x="16844.0"/><use xlink:href="#g0" x="19310.0"/><use xlink:href="#g0" x="20543.0"/><use xlink:href="#g0" x="21776.0"/><use xlink:href="#g0" x="23009.0"/><use xlink:href="#g0" x="24242.0"/><use xlink:href="#g0" x="25475.0"/><use xlink:href="#g0" x="26708.0"/><use xlink:href="#g0" x="27941.0"/><use xlink:href="#g0" x="32873.0"/><use xlink:href="#g0" x="34106.0"/><use xlink:href="#g0" x="35339.0"/><use xlink:href="#g0" x="36572.0"/><use xlink:href="#g0" x="37805.0"/><use xlink:href="#g0" x="39038.0"/><use xlink:href="#g0" x="47669.0"/><use xlink:href="#g0" x="48902.0"/><use xlink:href="#g0" x="50135.0"/><use xlink:href="#g0" x="51368.0"/><use xlink:href="#g0" x="52601.0"/><use xlink:href="#g0" x="56300.0"/><use xlink:href="#g0" x="57533.0"/><use xlink:href="#g0" x="58766.0"/><use xlink:href="#g0" x="59999.0"/><use xlink:href="#g0" x="61232.0"/><use xlink:href="#g0" x="62465.0"/><use xlink:href="#g0" x="67397.0"/><use xlink:href="#g0" x="68630.0"/><use xlink:href="#g0" x="69863.0"/><use xlink:href="#g0" x="71096.0"/><use xlink:href="#g0" x="72329.0"/><use xlink:href="#g0" x="73562.0"/><use xlink:href="#g0" x="77261.0"/><use xlink:href="#g0" x="78494.0"/><use xlink:href="#g0" x="79727.0"/><use xlink:href="#g0" x="80960.0"/><use xlink:href="#g0" x="82193.0"/><use xlink:href="#g0" x="83426.0"/><use xlink:href="#g0" x="84659.0"/><use xlink:href="#g0" x="90824.0"/><use xlink:href="#g0" x="92057.0"/><use xlink:href="#g0" x="93290.0"/><use xlink:href="#g0" x="94523.0"/><use xlink:href="#g0" x="95756.0"/></g><g fill="#e6edf3" transform="translate(0 76.48) scale(0.00781 -0.00781)"><use xlink:href="#g1" x="3281.0"/><use xlink:href="#g0" x="4514.0"/><use xlink:href="#g0" x="5747.0"/><use xlink:href="#g0" x="6980.0"/><use xlink:href="#g0" x="8213.0"/><use xlink:href="#g0" x="9446.0"/><use xlink:href="#g0" x="10679.0"/><use xlink:href="#g0" x="11912.0"/><use xlink:href="#g0" x="13145.0"/><use xlink:href="#g0" x="14378.0"/><use xlink:href="#g0" x="15611.0"/><use xlink:href="#g1" x="18077.0"/><use xlink:href="#g1" x="19310.0"/><use xlink:href="#g0" x="20543.0"/><use xlink:href="#g0" x="21776.0"/><use xlink:href="#g0" x="23009.0"/><use xlink:href="#g1" x="24242.0"/><use xlink:href="#g1" x="25475.0"/><use xlink:href="#g0" x="26708.0"/><use xlink:href="#g0" x="27941.0"/><use xlink:href="#g0" x="29174.0"/><use xlink:href="#g0" x="31640.0"/><use xlink:href="#g0" x="32873.0"/><use xlink:href="#g0" x="34106.0"/><use xlink:href="#g1" x="35339.0"/><use xlink:href="#g1" x="36572.0"/><use xlink:href="#g0" x="37805.0"/><use xlink:href="#g0" x="39038.0"/><use xlink:href="#g0" x="40271.0"/><use xlink:href="#g1" x="46436.0"/><use xlink:href="#g1" x="47669.0"/><use xlink:href="#g0" x="48902.0"/><use xlink:href="#g0" x="50135.0"/><use xlink:href="#g0" x="51368.0"/><use xlink:href="#g0" x="55067.0"/><use xlink:href="#g0" x="56300.0"/><use xlink:href="#g0" x="57533.0"/><use xlink:href="#g1" x="58766.0"/><use xlink:href="#g1" x="59999.0"/><use xlink:href="#g0" x="61232.0"/><use xlink:href="#g0" x="62465.0"/><use xlink:href="#g0" x="63698.0"/><use xlink:href="#g0" x="66164.0"/><use xlink:href="#g0" x="67397.0"/><use xlink:href="#g0" x="68630.0"/><use xlink:href="#g1" x="69863.0"/><use xlink:href="#g1" x="71096.0"/><use xlink:href="#g0" x="72329.0"/><use xlink:href="#g0" x="73562.0"/><use xlink:href="#g0" x="74795.0"/><use xlink:href="#g1" x="76028.0"/><use xlink:href="#g1" x="77261.0"/><use xlink:href="#g1" x="78494.0"/><use xlink:href="#g0" x="79727.0"/><use xlink:href="#g0" x="80960.0"/><use xlink:href="#g0" x="82193.0"/><use xlink:href="#g1" x="83426.0"/><use xlink:href="#g0" x="89591.0"/><use xlink:href="#g0" x="90824.0"/><use xlink:href="#g0" x="92057.0"/><use xlink:href="#g1" x="93290.0"/><use xlink:href="#g1" x="94523.0"/></g><g fill="#e6edf3" transform="translate(0 92.48) scale(0.00781 -0.00781)"><use xlink:href="#g1" x="3281.0"/><use xlink:href="#g0" x="4514.0"/><use xlink:href="#g0" x="5747.0"/><use xlink:href="#g0" x="6980.0"/><use xlink:href="#g1" x="8213.0"/><use xlink:href="#g1" x="9446.0"/><use xlink:href="#g1" x="10679.0"/><use xlink:href="#g1" x="11912.0"/><use xlink:href="#g1" x="13145.0"/><use xlink:href="#g1" x="14378.0"/><use xlink:href="#g1" x="19310.0"/><use xlink:href="#g0" x="20543.0"/><use xlink:href="#g0" x="21776.0"/><use xlink:href="#g0" x="23009.0"/><use xlink:href="#g1" x="25475.0"/><use xlink:href="#g1" x="26708.0"/><use xlink:href="#g1" x="27941.0"/><use xlink:href="#g1" x="30407.0"/><use xlink:href="#g0" x="31640.0"/><use xlink:href="#g0" x="32873.0"/><use xlink:href="#g0" x="34106.0"/><use xlink:href="#g1" x="36572.0"/><use xlink:href="#g0" x="37805.0"/><use xlink:href="#g0" x="39038.0"/><use xlink:href="#g0" x="40271.0"/><use xlink:href="#g1" x="47669.0"/><use xlink:href="#g0" x="48902.0"/><use xlink:href="#g0" x="50135.0"/><use xlink:href="#g0" x="51368.0"/><use xlink:href="#g1" x="53834.0"/><use xlink:href="#g0" x="55067.0"/><use xlink:href="#g0" x="56300.0"/><use xlink:href="#g0" x="57533.0"/><use xlink:href="#g0" x="58766.0"/><use xlink:href="#g0" x="59999.0"/><use xlink:href="#g0" x="61232.0"/><use xlink:href="#g0" x="62465.0"/><use xlink:href="#g1" x="64931.0"/><use xlink:href="#g0" x="66164.0"/><use xlink:href="#g0" x="67397.0"/><use xlink:href="#g0" x="68630.0"/><use xlink:href="#g1" x="71096.0"/><use xlink:href="#g1" x="72329.0"/><use xlink:href="#g1" x="73562.0"/><use xlink:href="#g1" x="78494.0"/><use xlink:href="#g0" x="79727.0"/><use xlink:href="#g0" x="80960.0"/><use xlink:href="#g0" x="82193.0"/><use xlink:href="#g1" x="88358.0"/><use xlink:href="#g1" x="89591.0"/><use xlink:href="#g0" x="90824.0"/><use xlink:href="#g0" x="92057.0"/><use xlink:href="#g0" x="93290.0"/><use xlink:href="#g0" x="94523.0"/><use xlink:href="#g0" x="95756.0"/></g><g fill="#e6edf3" transform="translate(0 108.48) scale(0.00781 -0.00781)"><use xlink:href="#g1" x="3281.0"/><use xlink:href="#g0" x="4514.0"/><use xlink:href="#g0" x="5747.0"/><use xlink:href="#g0" x="6980.0"/><use xlink:href="#g1" x="19310.0"/><use xlink:href="#g0" x="20543.0"/><use xlink:href="#g0" x="21776.0"/><use xlink:href="#g0" x="23009.0"/><use xlink:href="#g1" x="30407.0"/><use xlink:href="#g0" x="31640.0"/><use xlink:href="#g0" x="32873.0"/><use xlink:href="#g0" x="34106.0"/><use xlink:href="#g1" x="36572.0"/><use xlink:href="#g0" x="37805.0"/><use xlink:href="#g0" x="39038.0"/><use xlink:href="#g0" x="40271.0"/><use xlink:href="#g1" x="47669.0"/><use xlink:href="#g0" x="48902.0"/><use xlink:href="#g0" x="50135.0"/><use xlink:href="#g0" x="51368.0"/><use xlink:href="#g1" x="53834.0"/><use xlink:href="#g0" x="55067.0"/><use xlink:href="#g0" x="56300.0"/><use xlink:href="#g0" x="57533.0"/><use xlink:href="#g1" x="58766.0"/><use xlink:href="#g1" x="59999.0"/><use xlink:href="#g1" x="61232.0"/><use xlink:href="#g1" x="64931.0"/><use xlink:href="#g0" x="66164.0"/><use xlink:href="#g0" x="67397.0"/><use xlink:href="#g0" x="68630.0"/><use xlink:href="#g0" x="72329.0"/><use xlink:href="#g0" x="73562.0"/><use xlink:href="#g0" x="74795.0"/><use xlink:href="#g1" x="78494.0"/><use xlink:href="#g0" x="79727.0"/><use xlink:href="#g0" x="80960.0"/><use xlink:href="#g0" x="82193.0"/><use xlink:href="#g0" x="84659.0"/><use xlink:href="#g0" x="85892.0"/><use xlink:href="#g0" x="87125.0"/><use xlink:href="#g1" x="89591.0"/><use xlink:href="#g1" x="90824.0"/><use xlink:href="#g1" x="92057.0"/><use xlink:href="#g1" x="93290.0"/><use xlink:href="#g0" x="94523.0"/><use xlink:href="#g0" x="95756.0"/><use xlink:href="#g0" x="96989.0"/></g><g fill="#e6edf3" transform="translate(0 124.48) scale(0.00781 -0.00781)"><use xlink:href="#g0" x="3281.0"/><use xlink:href="#g0" x="4514.0"/><use xlink:href="#g0" x="5747.0"/><use xlink:href="#g0" x="6980.0"/><use xlink:href="#g0" x="8213.0"/><use xlink:href="#g0" x="19310.0"/><use xlink:href="#g0" x="20543.0"/><use xlink:href="#g0" x="21776.0"/><use xlink:href="#g0" x="23009.0"/><use xlink:href="#g0" x="24242.0"/><use xlink:href="#g1" x="30407.0"/><use xlink:href="#g1" x="31640.0"/><use xlink:href="#g0" x="32873.0"/><use xlink:href="#g0" x="34106.0"/><use xlink:href="#g0" x="35339.0"/><use xlink:href="#g0" x="36572.0"/><use xlink:href="#g0" x="37805.0"/><use xlink:href="#g0" x="39038.0"/><use xlink:href="#g1" x="47669.0"/><use xlink:href="#g0" x="48902.0"/><use xlink:href="#g0" x="50135.0"/><use xlink:href="#g0" x="51368.0"/><use xlink:href="#g1" x="53834.0"/><use xlink:href="#g1" x="55067.0"/><use xlink:href="#g0" x="56300.0"/><use xlink:href="#g0" x="57533.0"/><use xlink:href="#g0" x="58766.0"/><use xlink:href="#g0" x="59999.0"/><use xlink:href="#g0" x="61232.0"/><use xlink:href="#g0" x="62465.0"/><use xlink:href="#g1" x="64931.0"/><use xlink:href="#g1" x="66164.0"/><use xlink:href="#g0" x="67397.0"/><use xlink:href="#g0" x="68630.0"/><use xlink:href="#g0" x="69863.0"/><use xlink:href="#g0" x="71096.0"/><use xlink:href="#g0" x="72329.0"/><use xlink:href="#g0" x="73562.0"/><use xlink:href="#g1" x="78494.0"/><use xlink:href="#g1" x="79727.0"/><use xlink:href="#g0" x="80960.0"/><use xlink:href="#g0" x="82193.0"/><use xlink:href="#g0" x="83426.0"/><use xlink:href="#g0" x="84659.0"/><use xlink:href="#g0" x="85892.0"/><use xlink:href="#g0" x="89591.0"/><use xlink:href="#g0" x="90824.0"/><use xlink:href="#g0" x="92057.0"/><use xlink:href="#g0" x="93290.0"/><use xlink:href="#g0" x="94523.0"/><use xlink:href="#g0" x="95756.0"/></g><g fill="#e6edf3" transform="translate(0 140.48) scale(0.00781 -0.00781)"><use xlink:href="#g1" x="2048.0"/><use xlink:href="#g1" x="3281.0"/><use xlink:href="#g1" x="4514.0"/><use xlink:href="#g1" x="5747.0"/><use xlink:href="#g1" x="6980.0"/><use xlink:href="#g1" x="18077.0"/><use xlink:href="#g1" x="19310.0"/><use xlink:href="#g1" x="20543.0"/><use xlink:href="#g1" x="21776.0"/><use xlink:href="#g1" x="23009.0"/><use xlink:href="#g1" x="31640.0"/><use xlink:href="#g1" x="32873.0"/><use xlink:href="#g1" x="34106.0"/><use xlink:href="#g1" x="35339.0"/><use xlink:href="#g1" x="36572.0"/><use xlink:href="#g1" x="37805.0"/><use xlink:href="#g1" x="47669.0"/><use xlink:href="#g0" x="48902.0"/><use xlink:href="#g0" x="50135.0"/><use xlink:href="#g0" x="51368.0"/><use xlink:href="#g1" x="55067.0"/><use xlink:href="#g1" x="56300.0"/><use xlink:href="#g1" x="57533.0"/><use xlink:href="#g1" x="58766.0"/><use xlink:href="#g1" x="59999.0"/><use xlink:href="#g1" x="61232.0"/><use xlink:href="#g1" x="66164.0"/><use xlink:href="#g1" x="67397.0"/><use xlink:href="#g1" x="68630.0"/><use xlink:href="#g1" x="69863.0"/><use xlink:href="#g1" x="71096.0"/><use xlink:href="#g1" x="72329.0"/><use xlink:href="#g1" x="79727.0"/><use xlink:href="#g1" x="80960.0"/><use xlink:href="#g1" x="82193.0"/><use xlink:href="#g1" x="83426.0"/><use xlink:href="#g1" x="84659.0"/><use xlink:href="#g1" x="88358.0"/><use xlink:href="#g1" x="89591.0"/><use xlink:href="#g1" x="90824.0"/><use xlink:href="#g1" x="92057.0"/><use xlink:href="#g1" x="93290.0"/><use xlink:href="#g1" x="94523.0"/></g><g fill="#e6edf3" transform="translate(0 156.48) scale(0.00781 -0.00781)"><use xlink:href="#g0" x="42737.0"/><use xlink:href="#g0" x="43970.0"/><use xlink:href="#g0" x="45203.0"/><use xlink:href="#g1" x="47669.0"/><use xlink:href="#g0" x="48902.0"/><use xlink:href="#g0" x="50135.0"/><use xlink:href="#g0" x="51368.0"/></g><g fill="#e6edf3" transform="translate(0 172.48) scale(0.00781 -0.00781)"><use xlink:href="#g1" x="41504.0"/><use xlink:href="#g1" x="42737.0"/><use xlink:href="#g0" x="43970.0"/><use xlink:href="#g0" x="45203.0"/><use xlink:href="#g0" x="46436.0"/><use xlink:href="#g0" x="47669.0"/><use xlink:href="#g0" x="48902.0"/><use xlink:href="#g0" x="50135.0"/></g><g fill="#e6edf3" transform="translate(0 188.48) scale(0.00781 -0.00781)"><use xlink:href="#g1" x="42737.0"/><use xlink:href="#g1" x="43970.0"/><use xlink:href="#g1" x="45203.0"/><use xlink:href="#g1" x="46436.0"/><use xlink:href="#g1" x="47669.0"/><use xlink:href="#g1" x="48902.0"/></g><g class="nt" fill="#8b949e" transform="translate(0 108.48) scale(0.03400 -0.03400)"><use xlink:href="#j0" x="24451.7"/><use xlink:href="#j1" x="25451.7"/></g></svg>